<svg xmlns="http://www.w3.org/2000/svg" width="21" height="20" viewBox="0 0 21 20"><g><g><g><g><path fill="none" stroke="#0e3062" stroke-miterlimit="20" d="M16.374 3.777a3.174 3.174 0 0 1 0 6.347h-.794v0"/></g><g><path fill="none" stroke="#0e3062" stroke-miterlimit="20" d="M6.512 3.777A3.367 3.367 0 0 1 9.828 1c1.234 0 2.317.666 2.904 1.658"/></g><g><path fill="none" stroke="#0e3062" stroke-miterlimit="20" d="M11.217 12.9v0h1.587a2.777 2.777 0 1 0 0-5.553"/></g><g><path fill="none" stroke="#0e3062" stroke-miterlimit="20" d="M4.87 5.76a3.57 3.57 0 1 0 0 7.14h.793v0"/></g><g><path fill="none" stroke="#0e3062" stroke-miterlimit="20" d="M2.105 7.077A4.562 4.562 0 0 1 7.23 2.226"/></g><g><path fill="none" stroke="#0e3062" stroke-miterlimit="20" d="M15.31 6.157c.175.36.27.761.27 1.19 0 .508-.135.98-.373 1.388"/></g><g><path fill="none" stroke="#0e3062" stroke-miterlimit="20" d="M2.557 12.048a2.154 2.154 0 0 1-.067-.536c0-1.388 1.174-2.182 2.38-2.182"/></g><g><path fill="none" stroke="#0e3062" stroke-miterlimit="20" d="M12.097 1.88a3.967 3.967 0 0 1 5.653 2.21"/></g><g><path fill="none" stroke="#0e3062" stroke-miterlimit="20" d="M7.393 7.898a4.329 4.329 0 0 0-2.126-.551"/></g><g><path fill="none" stroke="#0e3062" stroke-miterlimit="20" d="M7.452 5.367a7.401 7.401 0 0 0-1.055 2.127"/></g></g><g><g><path fill="#9f5dd9" d="M10.027 6.95l-.397 3.967h1.984l-3.57 5.95.396-3.967H6.457z"/></g><g><path fill="none" stroke="#9f5dd9" stroke-miterlimit="20" d="M5.992 16.955l-1.773 1.772"/></g><g><path fill="none" stroke="#9f5dd9" stroke-miterlimit="20" d="M11.31 16.955l1.773 1.772"/></g><g><path fill="none" stroke="#9f5dd9" stroke-miterlimit="20" d="M3.332 14.296l-.886 1.772"/></g><g><path fill="none" stroke="#9f5dd9" stroke-miterlimit="20" d="M13.083 14.296l1.772 1.772"/></g><g><path fill="none" stroke="#9f5dd9" stroke-miterlimit="20" d="M7.764 17.841v1.773"/></g></g></g></g></svg>