<svg xmlns="http://www.w3.org/2000/svg" width="21" height="18" viewBox="0 0 21 18"><g><g><g><path fill="#0e3062" d="M18.226 15.885H2.694c-.357 0-.647-.321-.647-.716V7.071h16.826v8.098c0 .395-.29.716-.647.716zM2.694 2.839H4.17v.631c0 .396.29.716.648.716.357 0 .647-.32.647-.716v-.631h2.467v.631c0 .396.29.716.647.716.358 0 .647-.32.647-.716v-.631h2.468v.631c0 .396.29.716.647.716.357 0 .647-.32.647-.716v-.631h2.468v.631c0 .396.29.716.647.716.357 0 .647-.32.647-.716v-.631h1.476c.357 0 .647.32.647.716V5.64H2.047V3.555c0-.395.29-.716.647-.716zm15.532-1.432H16.75V.776c0-.396-.29-.716-.647-.716-.358 0-.647.32-.647.716v.631h-2.468V.776c0-.396-.29-.716-.647-.716-.357 0-.647.32-.647.716v.631H9.226V.776c0-.396-.29-.716-.647-.716-.357 0-.647.32-.647.716v.631H5.465V.776c0-.396-.29-.716-.647-.716-.358 0-.648.32-.648.716v.631H2.694c-1.07 0-1.941.963-1.941 2.148v11.614c0 1.184.87 2.147 1.941 2.147h15.532c1.07 0 1.942-.963 1.942-2.147V3.555c0-1.185-.871-2.148-1.942-2.148z"/></g><g><path fill="#9f5dd9" d="M10.629 14.317a.76.76 0 0 1-.54-.22l-2.28-2.281a.763.763 0 0 1 1.079-1.08l1.52 1.52 1.81-3.618a.76.76 0 0 1 1.353.684l-2.281 4.561a.76.76 0 0 1-.555.41z"/></g></g></g></svg>