<svg xmlns="http://www.w3.org/2000/svg" width="19" height="21" viewBox="0 0 19 21"><g><g><g><path fill="none" stroke="#0e3062" stroke-miterlimit="20" d="M16.065 6.038c.75-1.05 2.473-.037 1.724 1.012-1.462 2.061-3.524 2.812-5.661 2.175a108.19 108.19 0 0 0-1.95 3.524 24.628 24.628 0 0 1 2.55 1.725c.674.562 1.574 2.738 2.1 3.823.56 1.2-1.238 2.025-1.838.863-.45-.977-1.237-2.887-1.686-3.261A13.017 13.017 0 0 0 8.19 14.06c-.035 0-.112-.037-.15-.037a5.088 5.088 0 0 1-6.489 1.237 1.045 1.045 0 1 1 1.124-1.762c1.726.975 3.487-.3 4.312-1.912.788-1.577 1.388-2.7 2.025-3.862C7.738 7.313 6.576 7.687 5.64 9c-.713 1.05-2.474.037-1.725-1.012C5.676 5.476 8.338 4.876 11 6.45c.245.123.483.26.712.412 1.65.974 3.187.787 4.35-.825zm-3.075-.876a1.975 1.975 0 0 1-1.986-1.987 1.987 1.987 0 1 1 3.974 0 1.975 1.975 0 0 1-1.988 1.987z"/></g><g><path fill="#9f5dd9" d="M12.99 5.664a2.475 2.475 0 0 0 2.49-2.489 2.489 2.489 0 1 0-4.978 0 2.474 2.474 0 0 0 2.488 2.49z"/></g></g></g></svg>