<svg xmlns="http://www.w3.org/2000/svg" width="14" height="19" viewBox="0 0 14 19"><g><g><g><g><path fill="#0e3062" d="M6.213 1.766a.84.84 0 0 1 1.68 0v.315h-1.68zM4.4 4.686h5.308a.371.371 0 0 0 .371-.37V2.451a.371.371 0 0 0-.37-.371h-.889v-.315C8.82.792 8.027 0 7.053 0S5.287.792 5.287 1.766v.315H4.4a.371.371 0 0 0-.371.37v1.864c0 .205.166.371.371.371zm8.945-1.83h-2.388v.926h1.925v13.811H1.226V3.782h1.922v-.926H.763a.463.463 0 0 0-.463.463v14.737c0 .256.207.463.463.463h12.58a.463.463 0 0 0 .464-.463V3.32a.463.463 0 0 0-.463-.463z"/></g></g><g><path fill="#9f5dd9" d="M6.589 12.598a.557.557 0 0 1 .41-.16.546.546 0 0 1 .567.56.535.535 0 0 1-.567.553.562.562 0 0 1-.414-.157.541.541 0 0 1-.154-.396.54.54 0 0 1 .158-.4zm-.026-1.178c.02-.133.05-.25.089-.35.08-.2.224-.398.435-.592.212-.197.353-.356.423-.477a.778.778 0 0 0 .106-.389c0-.41-.183-.615-.547-.615a.546.546 0 0 0-.417.168l-.07.075c-.167.183-.347.38-.587.38-.285 0-.53-.238-.447-.51a1.28 1.28 0 0 1 .358-.578c.285-.262.672-.393 1.163-.393.495 0 .88.125 1.153.375.273.247.41.597.41 1.05 0 .207-.045.402-.134.586-.088.182-.244.385-.466.608l-.283.28c-.178.177-.28.384-.305.622a.237.237 0 0 1-.236.221h-.212c-.256 0-.47-.208-.433-.46zm.49 3.935a4.51 4.51 0 1 0 0-9.02 4.51 4.51 0 0 0 0 9.02z"/></g></g></g></svg>