<svg xmlns="http://www.w3.org/2000/svg" width="22.562" height="20.054" viewBox="0 0 22.562 20.054">
  <path id="Path_12768" data-name="Path 12768" d="M21.306,4.94H19.591V4.207a.756.756,0,1,0-1.5,0V4.94H15.219V4.207a.756.756,0,1,0-1.5,0V4.94H10.848V4.207a.756.756,0,1,0-1.5,0V4.94H6.476V4.207a.8.8,0,0,0-.752-.832.8.8,0,0,0-.752.832V4.94H3.256A2.388,2.388,0,0,0,1,7.436v13.5a2.388,2.388,0,0,0,2.256,2.5h18.05a2.388,2.388,0,0,0,2.256-2.5V7.436A2.388,2.388,0,0,0,21.306,4.94ZM3.256,6.6H4.972v.734a.8.8,0,0,0,.752.832.8.8,0,0,0,.752-.832V6.6H9.343v.734a.756.756,0,1,0,1.5,0V6.6h2.867v.734a.756.756,0,1,0,1.5,0V6.6h2.867v.734a.756.756,0,1,0,1.5,0V6.6h1.716a.8.8,0,0,1,.752.832V9.859H2.5V7.436A.8.8,0,0,1,3.256,6.6Zm18.05,15.161H3.256a.8.8,0,0,1-.752-.832v-9.41H22.058v9.41A.8.8,0,0,1,21.306,21.765Z" transform="translate(-1 -3.375)" fill="#fff"/>
</svg>
