<svg id="Group_3372" data-name="Group 3372" xmlns="http://www.w3.org/2000/svg" width="13.405" height="13.405" viewBox="0 0 13.405 13.405">
  <path id="Path_12736" data-name="Path 12736" d="M7.838,4H7V8.189h3.351V7.351H7.838Z" transform="translate(-1.135 -0.649)" fill="#fff"/>
  <path id="Path_12737" data-name="Path 12737" d="M6.7,0A6.434,6.434,0,0,0,.922,3.435L0,2.513V5.865H3.351L2.095,4.608A5.249,5.249,0,0,1,6.7,1.676a5.027,5.027,0,0,1,0,10.054A4.9,4.9,0,0,1,2.932,9.97L1.676,11.059A6.542,6.542,0,0,0,6.7,13.405,6.7,6.7,0,0,0,6.7,0Z" fill="#fff"/>
</svg>
