<svg xmlns="http://www.w3.org/2000/svg" width="23.206" height="22.119" viewBox="0 0 23.206 22.119">
  <g id="Group_3463" data-name="Group 3463" transform="translate(-642.587 -271.669)">
    <path id="Path_332" data-name="Path 332" d="M648.986,285.011a1.434,1.434,0,1,0,1.433-1.432A1.434,1.434,0,0,0,648.986,285.011Z" transform="translate(0.351 0.708)" fill="#9f5dd9"/>
    <path id="Path_333" data-name="Path 333" d="M655.47,285.011a1.434,1.434,0,1,0,1.434-1.432A1.433,1.433,0,0,0,655.47,285.011Z" transform="translate(0.706 0.708)" fill="#9f5dd9"/>
    <g id="Path_334" data-name="Path 334" transform="translate(0.124 1)" fill="none" stroke-miterlimit="10">
      <path d="M654.008,282.808a43.67,43.67,0,0,1-7.267-.594,2.251,2.251,0,0,1-1.479-.943,2.275,2.275,0,0,1-.378-1.7l1.175-6.6a2.294,2.294,0,0,1,1.987-1.871c.246-.029.464-.058.681-.1l.086-.015a43.427,43.427,0,0,1,10.5,0c.232.043.479.088.784.116a2.31,2.31,0,0,1,1.987,1.871l1.16,6.584a2.324,2.324,0,0,1-.378,1.712,2.25,2.25,0,0,1-1.479.928,43.66,43.66,0,0,1-7.383.609Z" stroke="none"/>
      <path d="M 654.008056640625 280.7080688476562 C 657.41357421875 280.7080688476562 660.048583984375 280.3050842285156 661.0233764648438 280.1318359375 L 661.0347900390625 280.1298217773438 L 661.0462036132812 280.1278991699219 C 661.0899658203125 280.1206359863281 661.1198120117188 280.1036987304688 661.1463623046875 280.0704956054688 C 661.17626953125 280.0216064453125 661.1865234375 279.9705200195312 661.1776733398438 279.9148864746094 L 660.0189819335938 273.3397521972656 C 660.0075073242188 273.2748107910156 659.931884765625 273.2034606933594 659.8628540039062 273.1905212402344 C 659.5054321289062 273.1553955078125 659.2167358398438 273.1050415039062 658.951904296875 273.0558471679688 L 658.9354858398438 273.0531311035156 C 658.134033203125 272.9199523925781 657.2255859375 272.7690124511719 654.0661010742188 272.7690124511719 C 650.9329833984375 272.7690124511719 650.019775390625 272.9184265136719 649.2140502929688 273.0502319335938 L 649.160888671875 273.0589294433594 L 649.1075439453125 273.0680236816406 C 648.8096313476562 273.1260375976562 648.52734375 273.1619873046875 648.2890625 273.1896362304688 C 648.2132568359375 273.1984252929688 648.1409912109375 273.2658386230469 648.1273803710938 273.343017578125 L 646.9544677734375 279.929931640625 C 646.94873046875 279.9669494628906 646.9487915039062 280.0184631347656 646.978759765625 280.0610046386719 L 646.986572265625 280.0721435546875 L 646.9942626953125 280.0833435058594 C 647.0237426757812 280.1262817382812 647.0714721679688 280.1401672363281 647.0977783203125 280.1446838378906 C 648.3193969726562 280.3550720214844 650.841552734375 280.7080688476562 654.008056640625 280.7080688476562 M 654.008056640625 282.8080749511719 C 650.6431274414062 282.8080749511719 648.0029907226562 282.4315185546875 646.7413330078125 282.2142028808594 C 646.1464233398438 282.1118774414062 645.6105346679688 281.778564453125 645.2625122070312 281.2711791992188 C 644.9144287109375 280.7775268554688 644.7836303710938 280.1688537597656 644.8848266601562 279.5739440917969 L 646.0598754882812 272.9748840332031 C 646.2339477539062 271.9886169433594 647.0462646484375 271.2196350097656 648.0472412109375 271.1036071777344 C 648.29296875 271.0751037597656 648.5113525390625 271.0455932617188 648.7286376953125 271.0023193359375 L 648.8151245117188 270.9875793457031 C 649.7001342773438 270.8430786132812 650.6863403320312 270.6690063476562 654.0661010742188 270.6690063476562 C 657.4458618164062 270.6690063476562 658.44580078125 270.8430786132812 659.3161010742188 270.9875793457031 C 659.5480346679688 271.0307922363281 659.794921875 271.0751037597656 660.0997924804688 271.1036071777344 C 661.0859985351562 271.2196350097656 661.9130249023438 271.9886169433594 662.0870361328125 272.9748840332031 L 663.2473754882812 279.5591430664062 C 663.3487548828125 280.1541137695312 663.2178955078125 280.7638244628906 662.8697509765625 281.2711791992188 C 662.521728515625 281.7637939453125 661.99951171875 282.0981750488281 661.390869140625 282.1994323730469 C 660.0850830078125 282.4315185546875 657.3878784179688 282.8080749511719 654.008056640625 282.8080749511719 Z" stroke="none" fill="#4c5666"/>
    </g>
    <g id="Path_335" data-name="Path 335" transform="translate(0 0.487)" fill="none" stroke-miterlimit="10">
      <path d="M654.19,293.3a9.2,9.2,0,0,1-5.425-2.1,10.323,10.323,0,0,1-3.335-4.423,3.692,3.692,0,0,1,.174-7.223.594.594,0,0,1,.609.348,1.612,1.612,0,0,0,.116.217,1.121,1.121,0,0,0,.726.464,41.789,41.789,0,0,0,7.078.58,43.849,43.849,0,0,0,7.194-.58,1.156,1.156,0,0,0,.725-.464.728.728,0,0,0,.116-.217.559.559,0,0,1,.61-.348,3.692,3.692,0,0,1,.174,7.223,10.4,10.4,0,0,1-3.336,4.423,9.2,9.2,0,0,1-5.424,2.1Z" stroke="none"/>
      <path d="M 654.190185546875 291.201171875 C 655.4456176757812 291.201171875 656.990478515625 290.5808715820312 658.3200073242188 289.5440368652344 C 659.5476684570312 288.5833129882812 660.4944458007812 287.3367004394531 660.9857788085938 286.0338439941406 L 661.402587890625 284.9287719726562 L 662.5633544921875 284.7109375 C 663.2075805664062 284.5900268554688 663.6934204101562 283.9309997558594 663.6934204101562 283.1779479980469 C 663.6934204101562 282.6876831054688 663.4948120117188 282.2455749511719 663.180908203125 281.9590148925781 C 662.769775390625 282.2975463867188 662.276611328125 282.532470703125 661.738037109375 282.6401672363281 L 661.709228515625 282.6459045410156 L 661.6803588867188 282.6508483886719 C 660.3482055664062 282.8787536621094 657.5961303710938 283.2611083984375 654.1322021484375 283.2611083984375 C 650.664306640625 283.2611083984375 647.979736328125 282.87744140625 646.6881103515625 282.6487731933594 L 646.6748657226562 282.6464233398438 L 646.66162109375 282.6438903808594 C 646.1156616210938 282.5400085449219 645.615478515625 282.3040161132812 645.198486328125 281.9599914550781 C 644.8851318359375 282.2465515136719 644.68701171875 282.6882019042969 644.68701171875 283.1779479980469 C 644.68701171875 283.9309997558594 645.1728515625 284.5900268554688 645.817138671875 284.7109375 L 646.98193359375 284.9295043945312 L 647.3969116210938 286.0396423339844 C 647.8805541992188 287.3337097167969 648.8263549804688 288.5783996582031 650.05615234375 289.54150390625 C 651.3895263671875 290.5807495117188 652.9349975585938 291.201171875 654.190185546875 291.201171875 M 654.190185546875 293.3011779785156 C 652.4497680664062 293.3011779785156 650.4772338867188 292.5321960449219 648.7651977539062 291.1978454589844 C 647.2283325195312 289.9942932128906 646.0531616210938 288.442626953125 645.4298095703125 286.77490234375 C 643.8053588867188 286.4700622558594 642.5870361328125 284.9616394042969 642.5870361328125 283.1779479980469 C 642.5870361328125 281.3351440429688 643.8781127929688 279.783447265625 645.6038818359375 279.5514221191406 C 645.6257934570312 279.5490417480469 645.6476440429688 279.5478515625 645.6692504882812 279.5478515625 C 645.9049682617188 279.5478515625 646.1197509765625 279.6869506835938 646.2125244140625 279.8995056152344 C 646.2420654296875 279.9723205566406 646.2852783203125 280.0450744628906 646.3284912109375 280.1168212890625 C 646.5025634765625 280.3636474609375 646.7494506835938 280.5229187011719 647.0542602539062 280.5809326171875 C 648.2874755859375 280.7992858886719 650.8538208007812 281.1611022949219 654.1322021484375 281.1611022949219 C 657.4243774414062 281.1611022949219 660.0499267578125 280.7992858886719 661.3262329101562 280.5809326171875 C 661.6163330078125 280.5229187011719 661.8768310546875 280.3636474609375 662.0509033203125 280.1168212890625 C 662.0951538085938 280.0587768554688 662.1384887695312 279.987060546875 662.1668701171875 279.8995056152344 C 662.257080078125 279.6819152832031 662.4588012695312 279.5438232421875 662.6845703125 279.5438232421875 C 662.7149047851562 279.5438232421875 662.7456665039062 279.5462951660156 662.776611328125 279.5514221191406 C 664.5022583007812 279.783447265625 665.7933959960938 281.3351440429688 665.7933959960938 283.1779479980469 C 665.7933959960938 284.9616394042969 664.5751342773438 286.4700622558594 662.95068359375 286.77490234375 C 662.3272705078125 288.4278564453125 661.1521606445312 289.9942932128906 659.6141967773438 291.1978454589844 C 657.9031982421875 292.5321960449219 655.9307250976562 293.3011779785156 654.190185546875 293.3011779785156 Z" stroke="none" fill="#4c5666"/>
    </g>
    <path id="Union_2" data-name="Union 2" d="M2.131,4.749V3.106H.487a.487.487,0,0,1,0-.974H2.131V.488a.487.487,0,1,1,.974,0V2.132H4.749a.487.487,0,0,1,0,.974H3.1V4.749a.487.487,0,1,1-.974,0Z" transform="translate(651.572 275.12)" fill="#9f5dd9" stroke="#9f5dd9" stroke-miterlimit="10" stroke-width="1"/>
  </g>
</svg>
