<svg xmlns="http://www.w3.org/2000/svg" width="20.006" height="20.006" viewBox="0 0 20.006 20.006">
  <g id="calendar" transform="translate(-2 -2)">
    <path id="Path_12791" data-name="Path 12791" d="M21.292,3.429H18.434V2.715a.715.715,0,1,0-1.429,0v.715H7V2.715a.715.715,0,0,0-1.429,0v.715H2.715A.715.715,0,0,0,2,4.144V8.431a.715.715,0,0,0,.715.715h.715V21.292a.715.715,0,0,0,.715.715H19.863a.715.715,0,0,0,.715-.715V9.145h.715a.715.715,0,0,0,.715-.715V4.144A.715.715,0,0,0,21.292,3.429ZM19.148,20.577H4.858V9.145h14.29Z" fill="#4c5665"/>
    <path id="Path_12792" data-name="Path 12792" d="M15.807,23.616a.952.952,0,0,1-.676-.276l-2.855-2.855a.956.956,0,1,1,1.351-1.351l1.9,1.9,2.265-4.53a.952.952,0,0,1,1.694.857l-2.855,5.711a.952.952,0,0,1-.695.514Z" transform="translate(-3.797 -4.954)" fill="#9f5dd9"/>
  </g>
</svg>
