<svg xmlns="http://www.w3.org/2000/svg" width="24.446" height="24.419" viewBox="0 0 24.446 24.419">
  <g id="Group_3464" data-name="Group 3464" transform="translate(-34.73 -302.95)">
    <g id="brainstorming" transform="translate(-914.038 -269.554)">
      <path id="Path_12804" data-name="Path 12804" d="M958.764,574.764a.864.864,0,0,1,.155,1.714,6.852,6.852,0,0,0-5.976,7.119.864.864,0,0,1-.181.529,20.418,20.418,0,0,0-1.928,2.861.553.553,0,0,0,.018.55.566.566,0,0,0,.491.277,1.539,1.539,0,0,1,1.543,1.417l.187,2.183a1.582,1.582,0,0,0,1.585,1.456h.734a2.6,2.6,0,0,1,2.593,2.593v.346a.865.865,0,0,1-1.729,0v-.346a.864.864,0,0,0-.864-.864h-.734a3.322,3.322,0,0,1-3.308-3.037l-.173-2.025a2.3,2.3,0,0,1-1.875-3.351,20.872,20.872,0,0,1,1.916-2.888,8.545,8.545,0,0,1,7.388-8.52A.942.942,0,0,1,958.764,574.764Zm9.064,11.884a.864.864,0,0,1,.76,1.275,4.957,4.957,0,0,0-.707,2.527v5.359a.865.865,0,0,1-1.729,0V590.45a6.73,6.73,0,0,1,.915-3.349A.865.865,0,0,1,967.828,586.648Z" fill="#4c5666" stroke="#4c5666" stroke-width="0.5"/>
    </g>
    <g id="brainstorming-2" data-name="brainstorming" transform="translate(-912.038 -271.554)">
      <path id="Path_12804-2" data-name="Path 12804" d="M964.46,574.554a3.422,3.422,0,0,1,2.295.857,3.554,3.554,0,0,1,.973,1.377,3.019,3.019,0,0,1,2.617,3.442,2.655,2.655,0,0,1-.592,4.254.864.864,0,1,1-.806-1.529.916.916,0,0,0,0-1.622.863.863,0,0,1-.405-1.079,1.451,1.451,0,0,0,.119-.465,1.318,1.318,0,0,0-1.3-1.295c-.017,0-.146.019-.175.023a.778.778,0,0,1-.107.007.865.865,0,0,1-.852-.727,1.769,1.769,0,0,0-1.768-1.511A1.749,1.749,0,0,0,962.677,578a.862.862,0,0,1-.277.6.993.993,0,0,1-.741.219,2.116,2.116,0,0,0-1.088,3.9.864.864,0,0,1-.938,1.452,3.849,3.849,0,0,1,1.435-7.028,3.521,3.521,0,0,1,.949-1.608A3.44,3.44,0,0,1,964.46,574.554Zm.985,5.439a.865.865,0,0,1,.6,1.483l-1.581,1.542h1.163a1.515,1.515,0,0,1,1.035,2.576l-1.89,1.92a.865.865,0,0,1-.616.257h-.006a.866.866,0,0,1-.61-1.47l1.531-1.555h-1.253a1.465,1.465,0,0,1-1.025-2.513l2.045-1.995A.865.865,0,0,1,965.445,579.993Z" fill="#9f5dd9" stroke="#9f5dd9" stroke-width="0.1"/>
    </g>
  </g>
</svg>
