<svg xmlns="http://www.w3.org/2000/svg" width="24.47" height="27.156" viewBox="0 0 24.47 27.156">
  <g id="Group_3476" data-name="Group 3476" transform="translate(-29.796 -754.2)">
    <path id="Path_12830" data-name="Path 12830" d="M25.965,6.494V26.062a3.494,3.494,0,0,1-3.494,3.494H11.29A3.494,3.494,0,0,1,7.8,26.062v-1.4a.7.7,0,0,1,1.4,0v1.4a2.1,2.1,0,0,0,2.1,2.1H22.471a2.1,2.1,0,0,0,2.1-2.1V6.494a2.1,2.1,0,0,0-2.1-2.1H11.29a2.1,2.1,0,0,0-2.1,2.1v1.4a.7.7,0,0,1-1.4,0v-1.4A3.494,3.494,0,0,1,11.29,3H22.471A3.494,3.494,0,0,1,25.965,6.494Z" transform="translate(28 751.5)" fill="#4c5666" stroke="#4c5666" stroke-width="0.6"/>
    <path id="Path_12831" data-name="Path 12831" d="M10.125,18.84A.4.4,0,0,0,10.3,18.8a.466.466,0,0,0,.289-.429V16.044h5.125a.466.466,0,0,0,.466-.466V11.851a.466.466,0,0,0-.466-.466H10.591V9.056a.466.466,0,0,0-.289-.429.442.442,0,0,0-.5.1L5.14,13.389a.45.45,0,0,0,0,.652L9.8,18.7a.437.437,0,0,0,.326.14Z" transform="translate(24.796 754.064)" fill="#9f5dd9"/>
  </g>
</svg>
