<svg xmlns="http://www.w3.org/2000/svg" width="21.931" height="21.393" viewBox="0 0 21.931 21.393">
  <g id="Group_3475" data-name="Group 3475" transform="translate(-34.034 -510.745)">
    <path id="Path_12823" data-name="Path 12823" d="M22.8,14.259a1.2,1.2,0,0,0-1.365.968,8.327,8.327,0,0,1-8.469,6.913H6.155l.792-.732a1.066,1.066,0,0,0,0-1.588,7.449,7.449,0,0,1-1.839-8.575,8.563,8.563,0,0,1,7.859-4.868,1.175,1.175,0,0,0,1.219-1.126,1.175,1.175,0,0,0-1.219-1.126A11.07,11.07,0,0,0,3.122,9.881a9.512,9.512,0,0,0,1.315,10.7L2.353,22.467A1.064,1.064,0,0,0,2.1,23.695a1.223,1.223,0,0,0,1.121.7h9.749c5.527,0,10.19-3.8,10.883-8.862a1.063,1.063,0,0,0-.238-.837A1.243,1.243,0,0,0,22.8,14.259Z" transform="translate(32.033 507.745)" fill="#4c5666"/>
    <path id="Path_12824" data-name="Path 12824" d="M17.561,6.231a1.275,1.275,0,0,0,1.657-.417,1.261,1.261,0,0,1,1.375-.533,1.144,1.144,0,0,1,.9,1.1A1.175,1.175,0,0,1,20.279,7.5,1.175,1.175,0,0,0,19.06,8.63a1.175,1.175,0,0,0,1.219,1.126,3.587,3.587,0,0,0,3.6-2.793A3.352,3.352,0,0,0,21.526,3.2a3.8,3.8,0,0,0-4.416,1.485,1.051,1.051,0,0,0-.122.858A1.143,1.143,0,0,0,17.561,6.231Zm3.181,4.729a1.311,1.311,0,0,0-.707-.079l-.219.068-.219.1-.183.146a1.122,1.122,0,0,0-.256.36.885.885,0,0,0-.1.45,1.05,1.05,0,0,0,.085.439,1.128,1.128,0,0,0,.268.36,1.272,1.272,0,0,0,.865.327A1.175,1.175,0,0,0,21.5,12.007a.885.885,0,0,0-.1-.428,1.259,1.259,0,0,0-.658-.608Z" transform="translate(32.033 507.745)" fill="#9f5dd9"/>
  </g>
</svg>
