<svg xmlns="http://www.w3.org/2000/svg" width="24.145" height="25.196" viewBox="0 0 24.145 25.196">
  <g id="Group_3471" data-name="Group 3471" transform="translate(-44.69 -42.282)">
    <path id="Path_12808" data-name="Path 12808" d="M113.608,110.342l-1.74-1.74,0,0a1.351,1.351,0,0,0-1.91-1.91l0,0-1.74-1.74a.867.867,0,0,0-1.388.225l-2.18,4.36-1.735,1.735a.862.862,0,0,0,0,1.218l.515.515a1.532,1.532,0,0,0-.69.4h0a1.538,1.538,0,0,0,0,2.174l.243.243a1.537,1.537,0,0,0,2.572-.689l.515.515a.861.861,0,0,0,1.218,0l1.735-1.735,4.36-2.18A.867.867,0,0,0,113.608,110.342Z" transform="translate(-45.027 -48.792)" fill="#9f5dd9"/>
    <path id="Path_12809" data-name="Path 12809" d="M48.429,63.558A1.635,1.635,0,0,1,46.8,61.926v-15.9a1.635,1.635,0,0,1,1.633-1.633H60.911a1.635,1.635,0,0,1,1.633,1.633v8.665a2.093,2.093,0,0,1,1.511.61l.6.6V46.021a3.743,3.743,0,0,0-3.739-3.739H48.429a3.743,3.743,0,0,0-3.739,3.739v15.9a3.743,3.743,0,0,0,3.739,3.739h7.613A2.732,2.732,0,0,1,56.624,64a2.058,2.058,0,0,1-.157-.444Z" transform="translate(0)" fill="#4c5666"/>
    <path id="Path_12810" data-name="Path 12810" d="M67.218,114.907a1.054,1.054,0,0,0,0,2.107h7.97l.219-.219.86-1.72a1.047,1.047,0,0,0-.57-.168Z" transform="translate(-16.788 -56.773)" fill="#4c5666"/>
    <path id="Path_12811" data-name="Path 12811" d="M76.75,92.074A1.053,1.053,0,0,0,75.7,91.021H67.217a1.053,1.053,0,1,0,0,2.107H75.7a1.054,1.054,0,0,0,1.053-1.053Z" transform="translate(-16.787 -38.101)" fill="#4c5666"/>
    <path id="Path_12812" data-name="Path 12812" d="M75.7,67.134H67.217a1.053,1.053,0,1,0,0,2.107H75.7a1.053,1.053,0,0,0,0-2.107Z" transform="translate(-16.787 -19.428)" fill="#4c5666"/>
  </g>
</svg>
