<svg id="Group_3411" data-name="Group 3411" xmlns="http://www.w3.org/2000/svg" width="13.507" height="18.519" viewBox="0 0 13.507 18.519">
  <g id="Group_3400" data-name="Group 3400" transform="translate(0 0)">
    <path id="Path_12771" data-name="Path 12771" d="M340.447,322.976h-2.388v.926h1.925v13.812H328.329V323.9h1.923v-.926h-2.386a.463.463,0,0,0-.463.463v14.738a.463.463,0,0,0,.463.463h12.581a.463.463,0,0,0,.463-.463V323.439A.463.463,0,0,0,340.447,322.976Zm-8.944,1.831h5.308a.371.371,0,0,0,.371-.371v-1.863a.371.371,0,0,0-.371-.371h-.888v-.315a1.766,1.766,0,1,0-3.532,0v.315H331.5a.371.371,0,0,0-.371.371v1.863A.371.371,0,0,0,331.5,324.806Zm1.814-2.921a.84.84,0,1,1,1.68,0v.315h-1.68Z" transform="translate(-327.403 -320.12)" fill="#0e3062"/>
  </g>
  <path id="Path_12784" data-name="Path 12784" d="M6.51,11.019A4.51,4.51,0,1,0,2,6.51,4.51,4.51,0,0,0,6.51,11.019ZM6.02,7.085a.417.417,0,0,0,.432.461h.212A.237.237,0,0,0,6.9,7.324a1.011,1.011,0,0,1,.3-.622l.284-.28a2.412,2.412,0,0,0,.466-.607,1.332,1.332,0,0,0,.133-.586,1.345,1.345,0,0,0-.41-1.051A1.647,1.647,0,0,0,6.525,3.8,1.653,1.653,0,0,0,5.362,4.2,1.281,1.281,0,0,0,5,4.774a.421.421,0,0,0,.447.51A.878.878,0,0,0,6.039,4.9l.07-.075a.546.546,0,0,1,.417-.167q.547,0,.547.615a.778.778,0,0,1-.105.389,2.337,2.337,0,0,1-.424.476,1.652,1.652,0,0,0-.434.593A1.6,1.6,0,0,0,6.02,7.085Zm.026,1.178a.587.587,0,0,0,0,.8.562.562,0,0,0,.413.156.55.55,0,0,0,.41-.156.577.577,0,0,0,0-.8.546.546,0,0,0-.406-.16A.557.557,0,0,0,6.045,8.263Z" transform="translate(0.244 4.335)" fill="#5f7de1" fill-rule="evenodd"/>
</svg>
