<svg xmlns="http://www.w3.org/2000/svg" width="25" height="22" viewBox="0 0 25 22"><g><g><g><g><g><path fill="#9f5dd9" d="M23.48 3.275h-1.214V2.063a1.213 1.213 0 1 0-2.425 0v1.212h-1.213a1.213 1.213 0 0 0 0 2.426h1.213v1.213a1.213 1.213 0 0 0 2.425 0V5.7h1.213a1.213 1.213 0 0 0 0-2.426z"/></g><g><path fill="#0e3062" d="M22.226 18.15H6.694c-1.07 0-1.942-.963-1.942-2.147V4.388c0-1.184.871-2.147 1.942-2.147H8.17c.027.007 4.108.013 7.47.013H16V3.65h-1.086c-2.59 0-6.713.006-6.744.022H6.694c-.356 0-.647.32-.647.715V16.003c0 .395.29.716.647.716h15.532c.357 0 .648-.321.648-.716V8.834h1.294v7.169c0 1.184-.871 2.147-1.942 2.147z"/></g></g><g><path fill="none" stroke="#0e3062" stroke-miterlimit="20" stroke-width="1.5" d="M5.964 16.62v0l7.665-7.665v0l2.64 3.895v0l2.474-1.327v0l4.342 2.872v0l.513.18v0"/></g><g><path fill="#0e3062" d="M7 6.5a1.5 1.5 0 1 1 3 0 1.5 1.5 0 0 1-3 0z"/></g></g><g><path fill="#0e3062" d="M19.127 21.15H2.794c-1.126 0-2.042-1.023-2.042-2.283V6.524c0-1.259.916-2.282 2.042-2.282h1.093v1.52H2.794c-.375 0-.68.342-.68.762v12.343c0 .42.305.762.68.762h16.333c.288 0 .546-.205.642-.51l1.386.008c-.117 1.154-.99 2.024-2.028 2.024z"/></g></g></g></svg>