<svg xmlns="http://www.w3.org/2000/svg" width="22.776" height="22.776" viewBox="0 0 22.776 22.776">
  <g id="Group_3462" data-name="Group 3462" transform="translate(-33.684 -211.974)">
    <path id="search" d="M7.783,11.01H12.43v1.557H7.783Zm-2.919-.194a.973.973,0,1,0,.973.973A.973.973,0,0,0,4.865,10.816Zm10.78-4.748H7.783V7.624h7.861ZM4.865,5.873a.973.973,0,1,0,.973.973A.973.973,0,0,0,4.865,5.873ZM1.557,17.591V2.335a.779.779,0,0,1,.778-.778H17.591a.779.779,0,0,1,.778.778v8.8h1.557v-8.8A2.338,2.338,0,0,0,17.591,0H2.335A2.338,2.338,0,0,0,0,2.335V17.591a2.338,2.338,0,0,0,2.335,2.335h8.99V18.369H2.335A.779.779,0,0,1,1.557,17.591Z" transform="translate(34.034 212.324)" fill="#4c5666" stroke="#4c5665" stroke-width="0.7"/>
    <path id="search-2" data-name="search" d="M18.83,19.931l-1.55-1.55a3.506,3.506,0,1,1,1.127-1.074l1.524,1.524Zm-3.341-2.613a1.946,1.946,0,1,0-1.946-1.946A1.948,1.948,0,0,0,15.489,17.318Zm0,0" transform="translate(36.034 214.324)" fill="#9f5dd9" stroke="#9f5dd9" stroke-width="0.7"/>
  </g>
</svg>
