<svg xmlns="http://www.w3.org/2000/svg" width="17.911" height="19.582" viewBox="0 0 17.911 19.582">
  <g id="Group_3452" data-name="Group 3452" transform="translate(-39.566 -371.686)">
    <path id="Path_12795" data-name="Path 12795" d="M215.913,30a1.975,1.975,0,1,0-1.408-.579A1.976,1.976,0,0,0,215.913,30Zm3.071.876a2.976,2.976,0,0,1-4.35.825,6.926,6.926,0,0,0-.712-.412,4.973,4.973,0,0,0-7.086,1.537c-.749,1.05,1.013,2.062,1.725,1.013a2.818,2.818,0,0,1,3.374-1.275c-.637,1.162-1.238,2.284-2.025,3.861-.825,1.612-2.587,2.887-4.312,1.912a1.045,1.045,0,1,0-1.124,1.762,5.088,5.088,0,0,0,6.489-1.237c.038,0,.114.037.15.037a13.018,13.018,0,0,1,3.113,1.838A16.121,16.121,0,0,1,215.913,44a1.015,1.015,0,0,0,1.837-.862c-.525-1.085-1.425-3.262-2.1-3.824a24.628,24.628,0,0,0-2.55-1.725c.638-1.2,1.275-2.362,1.95-3.524a4.954,4.954,0,0,0,5.661-2.175c.749-1.049-.974-2.062-1.724-1.012Z" transform="translate(-163.923 346.163)" fill="none" stroke="#0e3062" stroke-width="1" fill-rule="evenodd"/>
    <path id="Path_12796" data-name="Path 12796" d="M216.415,31a2.474,2.474,0,1,0-1.764-.725A2.475,2.475,0,0,0,216.415,31Z" transform="translate(-164.425 345.661)" fill="#5f7de1" fill-rule="evenodd"/>
  </g>
</svg>
