<svg xmlns="http://www.w3.org/2000/svg" width="24.603" height="27.042" viewBox="0 0 24.603 27.042">
  <g id="settings" transform="translate(-22.077 0)">
    <g id="Group_3466" data-name="Group 3466" transform="translate(31.204 13.524)">
      <g id="Group_3465" data-name="Group 3465" transform="translate(0)">
        <path id="Path_12805" data-name="Path 12805" d="M200.994,244.877a10.482,10.482,0,0,1-10.471,10.471v-1.071a.14.14,0,0,0-.221-.116l-2.888,1.988a.139.139,0,0,0,0,.232l2.888,1.988a.14.14,0,0,0,.221-.116v-1.071a12.315,12.315,0,0,0,12.3-12.3Z" transform="translate(-187.352 -244.877)" fill="#9f5dd9"/>
      </g>
    </g>
    <g id="Group_3468" data-name="Group 3468" transform="translate(22.077 0)">
      <g id="Group_3467" data-name="Group 3467" transform="translate(0 0)">
        <path id="Path_12806" data-name="Path 12806" d="M37.491,2.015,34.6.027a.14.14,0,0,0-.221.116V1.214a12.323,12.323,0,0,0-12.3,12.31H23.91A10.482,10.482,0,0,1,34.381,3.053V4.124a.14.14,0,0,0,.221.116l2.888-1.988A.145.145,0,0,0,37.491,2.015Z" transform="translate(-22.077 0)" fill="#9f5dd9"/>
      </g>
    </g>
    <g id="Group_3470" data-name="Group 3470" transform="translate(26.672 5.814)">
      <g id="Group_3469" data-name="Group 3469" transform="translate(0)">
        <path id="Path_12807" data-name="Path 12807" d="M120.188,111.783h-1.154a6.157,6.157,0,0,0-.922-2.226l.817-.817a.507.507,0,0,0,0-.718l-.978-.978a.507.507,0,0,0-.718,0l-.823.817a6.157,6.157,0,0,0-2.226-.922v-1.154a.507.507,0,0,0-.508-.508h-1.386a.507.507,0,0,0-.508.508v1.154a6.157,6.157,0,0,0-2.226.922l-.817-.817a.507.507,0,0,0-.718,0l-.977.978a.507.507,0,0,0,0,.718l.817.817a6.157,6.157,0,0,0-.922,2.226h-1.154a.507.507,0,0,0-.508.508v1.386a.507.507,0,0,0,.508.508h1.154a6.157,6.157,0,0,0,.922,2.226l-.817.817a.517.517,0,0,0,0,.718l.977.977a.507.507,0,0,0,.718,0l.817-.817a6.157,6.157,0,0,0,2.226.922v1.154a.507.507,0,0,0,.508.508h1.386a.507.507,0,0,0,.508-.508v-1.154a6.157,6.157,0,0,0,2.226-.922l.817.817a.507.507,0,0,0,.718,0l.977-.977a.507.507,0,0,0,0-.718l-.812-.817a6.156,6.156,0,0,0,.922-2.226h1.154a.507.507,0,0,0,.508-.508v-1.386A.507.507,0,0,0,120.188,111.783Zm-7.2,3.987a2.783,2.783,0,1,1,2.783-2.783A2.786,2.786,0,0,1,112.987,115.77Z" transform="translate(-105.277 -105.277)" fill="#4c5666"/>
      </g>
    </g>
  </g>
</svg>
