<svg xmlns="http://www.w3.org/2000/svg" width="25.82" height="25.82" viewBox="0 0 25.82 25.82">
  <g id="customer-support" transform="translate(0.3 0.3)">
    <path id="Path_12827" data-name="Path 12827" d="M23.725,10.465a11.135,11.135,0,0,0-22.229,0,2.22,2.22,0,0,0-1.5,2.1v2.955a2.219,2.219,0,0,0,2.217,2.217H5.372a8.126,8.126,0,0,0,14.477,0h2.416v.837a5.178,5.178,0,0,1-5.172,5.172H11.871V25.22h5.221a6.657,6.657,0,0,0,6.65-6.65v-.964a2.22,2.22,0,0,0,1.478-2.09V12.561A2.22,2.22,0,0,0,23.725,10.465ZM12.61,1.478a9.647,9.647,0,0,1,9.626,8.866H19.848a8.126,8.126,0,0,0-14.477,0H2.984A9.647,9.647,0,0,1,12.61,1.478ZM4.482,16.255H2.217a.74.74,0,0,1-.739-.739V12.561a.74.74,0,0,1,.739-.739H4.482Zm8.127,4.433a6.65,6.65,0,1,1,6.65-6.65A6.657,6.657,0,0,1,12.61,20.688Zm11.132-5.172a.74.74,0,0,1-.739.739H20.737V11.822H23a.74.74,0,0,1,.739.739Z" fill="#4c5666" stroke="#4c5666" stroke-width="0.6"/>
  </g>
</svg>
