<svg xmlns="http://www.w3.org/2000/svg" width="27.004" height="17.424" viewBox="0 0 27.004 17.424">
  <g id="Page-1" transform="translate(-5.998 -15.203)">
    <g id="trends" transform="translate(7.5 19.75)">
      <g id="Group-6">
        <path id="Fill-5" d="M33.208,29.47a.751.751,0,0,1-1.052-.137l-4.381-5.687a2.7,2.7,0,0,0,.965-1.206l4.6,5.978A.75.75,0,0,1,33.208,29.47ZM18.971,31.733a.749.749,0,0,1-1.272.074l-5.142-7.279-3.893,2.6a.75.75,0,1,1-.832-1.248l4.5-3a.75.75,0,0,1,1.029.191l4.867,6.89,3.8-7.006a2.7,2.7,0,0,0,1.183.966Z" transform="translate(-8.5 -19.75)" fill="#4c5665" stroke="#4c5665" stroke-width="1" fill-rule="evenodd"/>
        <path id="Fill-5-2" data-name="Fill-5" d="M26.3,24.22a2.735,2.735,0,1,1,2.735-2.735A2.738,2.738,0,0,1,26.3,24.22Z" transform="translate(-9.547 -22.797)" fill="#9f5dd9" stroke="#9f5dd9" stroke-width="1" fill-rule="evenodd"/>
      </g>
    </g>
  </g>
</svg>
